<svg width="44" height="42" viewBox="0 0 44 42" fill="none" xmlns="http://www.w3.org/2000/svg">
<path d="M22.8484 2.75161C22.6234 2.52665 22.3182 2.40027 22 2.40027C21.6818 2.40027 21.3766 2.52665 21.1516 2.75161L12.7516 11.1516C12.533 11.3779 12.4121 11.6811 12.4148 11.9957C12.4175 12.3103 12.5437 12.6113 12.7662 12.8338C12.9887 13.0563 13.2897 13.1825 13.6043 13.1852C13.919 13.188 14.2221 13.067 14.4484 12.8484L14.8 12.4968V20.4C14.8 20.7183 14.9264 21.0235 15.1515 21.2485C15.3765 21.4736 15.6817 21.6 16 21.6H18.4C18.7183 21.6 19.0235 21.4736 19.2485 21.2485C19.4736 21.0235 19.6 20.7183 19.6 20.4V18C19.6 17.6818 19.7264 17.3765 19.9515 17.1515C20.1765 16.9264 20.4817 16.8 20.8 16.8H23.2C23.5183 16.8 23.8235 16.9264 24.0485 17.1515C24.2736 17.3765 24.4 17.6818 24.4 18V20.4C24.4 20.7183 24.5264 21.0235 24.7515 21.2485C24.9765 21.4736 25.2817 21.6 25.6 21.6H28C28.3183 21.6 28.6235 21.4736 28.8485 21.2485C29.0736 21.0235 29.2 20.7183 29.2 20.4V12.4968L29.5516 12.8484C29.7779 13.067 30.081 13.188 30.3957 13.1852C30.7103 13.1825 31.0113 13.0563 31.2338 12.8338C31.4563 12.6113 31.5825 12.3103 31.5852 11.9957C31.5879 11.6811 31.467 11.3779 31.2484 11.1516L22.8484 2.75161Z" fill="white"/>
<path d="M3.15341 38C5.36932 38 6.65128 36.6257 6.65128 34.353C6.65128 32.0909 5.36932 30.7273 3.22798 30.7273H0.799006V38H3.15341ZM1.89631 37.0412V31.6861H3.16051C4.75142 31.6861 5.57173 32.6378 5.57173 34.353C5.57173 36.0753 4.75142 37.0412 3.09304 37.0412H1.89631ZM8.23058 38H9.29237V32.5455H8.23058V38ZM8.7668 31.7038C9.13256 31.7038 9.43796 31.4197 9.43796 31.0717C9.43796 30.7237 9.13256 30.4361 8.7668 30.4361C8.39748 30.4361 8.09563 30.7237 8.09563 31.0717C8.09563 31.4197 8.39748 31.7038 8.7668 31.7038ZM15.1082 33.8771C14.888 33.0284 14.2239 32.4744 13.045 32.4744C11.8127 32.4744 10.9391 33.1243 10.9391 34.0902C10.9391 34.8643 11.4079 35.3793 12.4306 35.6065L13.3539 35.8089C13.8795 35.9261 14.1245 36.1605 14.1245 36.5014C14.1245 36.924 13.6735 37.2543 12.9775 37.2543C12.3418 37.2543 11.9335 36.9808 11.8056 36.4446L10.7793 36.6009C10.9569 37.5668 11.7594 38.1101 12.9846 38.1101C14.3021 38.1101 15.2147 37.4105 15.2147 36.4233C15.2147 35.6527 14.7246 35.1768 13.7232 34.946L12.8567 34.7472C12.2566 34.6051 11.9974 34.4027 12.0009 34.0334C11.9974 33.6143 12.4519 33.3161 13.0556 33.3161C13.7161 33.3161 14.0215 33.6818 14.1458 34.0476L15.1082 33.8771ZM18.9797 38.1101C20.2688 38.1101 21.1033 37.3359 21.2205 36.2741H20.1871C20.0522 36.8636 19.5941 37.2116 18.9868 37.2116C18.0884 37.2116 17.5096 36.4624 17.5096 35.2727C17.5096 34.1044 18.099 33.3693 18.9868 33.3693C19.6615 33.3693 20.0735 33.7955 20.1871 34.3068H21.2205C21.1069 33.206 20.2084 32.4744 18.9691 32.4744C17.4314 32.4744 16.4371 33.6321 16.4371 35.2976C16.4371 36.9418 17.3959 38.1101 18.9797 38.1101ZM24.9536 38.1101C26.4912 38.1101 27.4962 36.9844 27.4962 35.2976C27.4962 33.6001 26.4912 32.4744 24.9536 32.4744C23.4159 32.4744 22.4109 33.6001 22.4109 35.2976C22.4109 36.9844 23.4159 38.1101 24.9536 38.1101ZM24.9571 37.2188C23.9521 37.2188 23.4834 36.3416 23.4834 35.294C23.4834 34.25 23.9521 33.3622 24.9571 33.3622C25.955 33.3622 26.4237 34.25 26.4237 35.294C26.4237 36.3416 25.955 37.2188 24.9571 37.2188ZM33.4522 32.5455H32.3123L30.9345 36.7429H30.8777L29.4963 32.5455H28.3564L30.3379 38H31.4743L33.4522 32.5455ZM36.9056 38.1101C38.0953 38.1101 38.9369 37.5241 39.1784 36.6364L38.1734 36.4553C37.9816 36.9702 37.52 37.233 36.9163 37.233C36.0072 37.233 35.3964 36.6435 35.368 35.5923H39.2458V35.2159C39.2458 33.245 38.0669 32.4744 36.8311 32.4744C35.3112 32.4744 34.3098 33.6321 34.3098 35.3082C34.3098 37.0021 35.297 38.1101 36.9056 38.1101ZM35.3716 34.7969C35.4142 34.0227 35.9752 33.3516 36.8382 33.3516C37.662 33.3516 38.2018 33.9624 38.2054 34.7969H35.3716ZM40.7239 38H41.7857V34.669C41.7857 33.9553 42.3361 33.4403 43.089 33.4403C43.3092 33.4403 43.5577 33.4794 43.643 33.5043V32.4886C43.5364 32.4744 43.3269 32.4638 43.192 32.4638C42.5528 32.4638 42.0059 32.826 41.807 33.4119H41.7502V32.5455H40.7239V38Z" fill="white"/>
</svg>
