<svg width="36" height="42" viewBox="0 0 36 42" fill="none" xmlns="http://www.w3.org/2000/svg">
<path fill-rule="evenodd" clip-rule="evenodd" d="M8 8C6.89543 8 6 8.89543 6 10V22C6 23.1046 6.89543 24 8 24H28C29.1046 24 30 23.1046 30 22V10C30 8.89543 29.1046 8 28 8H8ZM15.5 13.5002C15.5 12.7323 16.3295 12.251 16.9961 12.6319L20.9806 14.9087C21.6524 15.2926 21.6524 16.2613 20.9806 16.6452L16.9961 18.9221C16.3295 19.303 15.5 18.8216 15.5 18.0538V13.5002Z" fill="#979797"/>
<rect x="7" y="4" width="22" height="2" rx="1" fill="#979797"/>
<rect x="8" width="20" height="2" rx="1" fill="#979797"/>
<path d="M0.799006 38H5.19176V37.0554H1.89631V30.7273H0.799006V38ZM6.65831 38H7.7201V32.5455H6.65831V38ZM7.19453 31.7038C7.5603 31.7038 7.8657 31.4197 7.8657 31.0717C7.8657 30.7237 7.5603 30.4361 7.19453 30.4361C6.82521 30.4361 6.52337 30.7237 6.52337 31.0717C6.52337 31.4197 6.82521 31.7038 7.19453 31.7038ZM9.53377 38H10.5707V37.1513H10.6595C10.8512 37.4993 11.2419 38.1065 12.2362 38.1065C13.5572 38.1065 14.516 37.0483 14.516 35.2834C14.516 33.5149 13.543 32.4744 12.2255 32.4744C11.2135 32.4744 10.8477 33.0923 10.6595 33.4297H10.5956V30.7273H9.53377V38ZM10.5743 35.2727C10.5743 34.1328 11.0714 33.3764 11.9983 33.3764C12.9606 33.3764 13.4436 34.1896 13.4436 35.2727C13.4436 36.3665 12.9464 37.201 11.9983 37.201C11.0856 37.201 10.5743 36.4197 10.5743 35.2727ZM16.0083 38H17.0701V34.669C17.0701 33.9553 17.6205 33.4403 18.3734 33.4403C18.5935 33.4403 18.8421 33.4794 18.9273 33.5043V32.4886C18.8208 32.4744 18.6113 32.4638 18.4763 32.4638C17.8371 32.4638 17.2903 32.826 17.0914 33.4119H17.0346V32.5455H16.0083V38ZM21.6847 38.1207C22.5867 38.1207 23.0945 37.6626 23.2969 37.2543H23.3396V38H24.3765V34.3778C24.3765 32.7905 23.1265 32.4744 22.26 32.4744C21.2728 32.4744 20.3637 32.8722 20.0086 33.8665L21.0065 34.0938C21.1627 33.7067 21.5604 33.3338 22.2742 33.3338C22.9596 33.3338 23.3112 33.6925 23.3112 34.3104V34.3352C23.3112 34.7223 22.9134 34.7152 21.9333 34.8288C20.8999 34.9496 19.8417 35.2195 19.8417 36.4588C19.8417 37.5312 20.6478 38.1207 21.6847 38.1207ZM21.9156 37.2685C21.3154 37.2685 20.8822 36.9986 20.8822 36.473C20.8822 35.9048 21.3864 35.7024 22.0008 35.6207C22.3452 35.5746 23.162 35.4822 23.3147 35.3295V36.0327C23.3147 36.679 22.7998 37.2685 21.9156 37.2685ZM26.0907 38H27.1525V34.669C27.1525 33.9553 27.7029 33.4403 28.4558 33.4403C28.676 33.4403 28.9245 33.4794 29.0098 33.5043V32.4886C28.9032 32.4744 28.6937 32.4638 28.5588 32.4638C27.9196 32.4638 27.3727 32.826 27.1738 33.4119H27.117V32.5455H26.0907V38ZM31.0658 40.0455C31.9429 40.0455 32.4969 39.5874 32.813 38.728L35.0679 32.5561L33.9209 32.5455L32.5395 36.7784H32.4827L31.1013 32.5455H29.9649L31.9607 38.071L31.8293 38.4332C31.5594 39.1577 31.1794 39.218 30.5971 39.0582L30.3414 39.9283C30.4692 39.9851 30.7462 40.0455 31.0658 40.0455Z" fill="#8B8C8C"/>
</svg>
