<svg width="33" height="42" viewBox="0 0 33 42" fill="none" xmlns="http://www.w3.org/2000/svg">
<path fill-rule="evenodd" clip-rule="evenodd" d="M16.5 10.8C17.4548 10.8 18.3705 10.4207 19.0456 9.74559C19.7207 9.07046 20.1 8.15479 20.1 7.20001C20.1 6.24523 19.7207 5.32955 19.0456 4.65442C18.3705 3.97929 17.4548 3.60001 16.5 3.60001C15.5452 3.60001 14.6295 3.97929 13.9544 4.65442C13.2793 5.32955 12.9 6.24523 12.9 7.20001C12.9 8.15479 13.2793 9.07046 13.9544 9.74559C14.6295 10.4207 15.5452 10.8 16.5 10.8ZM8.1 21.6C8.1 20.4969 8.31727 19.4046 8.73941 18.3855C9.16155 17.3663 9.78029 16.4403 10.5603 15.6603C11.3403 14.8803 12.2663 14.2616 13.2855 13.8394C14.3046 13.4173 15.3969 13.2 16.5 13.2C17.6031 13.2 18.6954 13.4173 19.7145 13.8394C20.7337 14.2616 21.6597 14.8803 22.4397 15.6603C23.2197 16.4403 23.8384 17.3663 24.2606 18.3855C24.6827 19.4046 24.9 20.4969 24.9 21.6H8.1Z" fill="#8B8C8C"/>
<path d="M0.799006 38H1.89631V35.4432H3.38778C5.07457 35.4432 5.90909 34.424 5.90909 33.0817C5.90909 31.7429 5.08168 30.7273 3.39134 30.7273H0.799006V38ZM1.89631 34.5128V31.6683H3.27415C4.3608 31.6683 4.80469 32.2578 4.80469 33.0817C4.80469 33.9055 4.3608 34.5128 3.28835 34.5128H1.89631ZM7.41026 38H8.47205V34.669C8.47205 33.9553 9.02248 33.4403 9.77532 33.4403C9.99549 33.4403 10.2441 33.4794 10.3293 33.5043V32.4886C10.2228 32.4744 10.0132 32.4638 9.8783 32.4638C9.2391 32.4638 8.69222 32.826 8.49336 33.4119H8.43654V32.5455H7.41026V38ZM13.6504 38.1101C15.1881 38.1101 16.193 36.9844 16.193 35.2976C16.193 33.6001 15.1881 32.4744 13.6504 32.4744C12.1128 32.4744 11.1078 33.6001 11.1078 35.2976C11.1078 36.9844 12.1128 38.1101 13.6504 38.1101ZM13.654 37.2188C12.649 37.2188 12.1803 36.3416 12.1803 35.294C12.1803 34.25 12.649 33.3622 13.654 33.3622C14.6518 33.3622 15.1206 34.25 15.1206 35.294C15.1206 36.3416 14.6518 37.2188 13.654 37.2188ZM20.2741 32.5455H19.0987V32.0554C19.0987 31.5724 19.2975 31.3097 19.816 31.3097C20.0362 31.3097 20.1924 31.3594 20.2919 31.3913L20.5404 30.532C20.3913 30.4751 20.0824 30.3864 19.6527 30.3864C18.7897 30.3864 18.0333 30.8906 18.0333 31.9134V32.5455H17.1917V33.3977H18.0333V38H19.0987V33.3977H20.2741V32.5455ZM21.6696 38H22.7314V32.5455H21.6696V38ZM22.2059 31.7038C22.5716 31.7038 22.877 31.4197 22.877 31.0717C22.877 30.7237 22.5716 30.4361 22.2059 30.4361C21.8365 30.4361 21.5347 30.7237 21.5347 31.0717C21.5347 31.4197 21.8365 31.7038 22.2059 31.7038ZM25.5217 30.7273H24.4599V38H25.5217V30.7273ZM29.601 38.1101C30.7906 38.1101 31.6322 37.5241 31.8737 36.6364L30.8687 36.4553C30.677 36.9702 30.2153 37.233 29.6116 37.233C28.7025 37.233 28.0917 36.6435 28.0633 35.5923H31.9412V35.2159C31.9412 33.245 30.7622 32.4744 29.5264 32.4744C28.0065 32.4744 27.0051 33.6321 27.0051 35.3082C27.0051 37.0021 27.9923 38.1101 29.601 38.1101ZM28.0669 34.7969C28.1095 34.0227 28.6706 33.3516 29.5335 33.3516C30.3574 33.3516 30.8971 33.9624 30.9007 34.7969H28.0669Z" fill="#8B8C8C"/>
</svg>
